<?xml version="1.0" encoding="UTF-8"?>
<svg width="16px" height="18px" viewBox="0 0 16 18" version="1.1" xmlns="http://www.w3.org/2000/svg" xmlns:xlink="http://www.w3.org/1999/xlink">
    <!-- Generator: Sketch 48 (47235) - http://www.bohemiancoding.com/sketch -->
    <title>_1-user_-_single</title>
    <desc>Created with Sketch.</desc>
    <defs></defs>
    <g id="Artboard-3" stroke="none" stroke-width="1" fill="none" fill-rule="evenodd" transform="translate(-1274.000000, -20.000000)">
        <g id="导航条" fill="#FFFFFF">
            <path d="M1288.6255,37.9951359 C1288.63392,37.8560775 1288.64655,37.684472 1288.64655,37.5861405 C1288.64655,33.7824649 1285.9532,31.365349 1282,31.365349 C1278.0468,31.365349 1275.46255,33.7510116 1275.46255,37.5910046 C1275.46255,37.730063 1275.47602,37.8609416 1275.4836,38 L1274.02105,38 C1274.01347,37.8609416 1274,37.730063 1274,37.5910046 C1274.00118,34.1562236 1276.32366,31.1296349 1279.712,30.1472877 C1277.37552,29.1032332 1276.10244,26.6199488 1276.6526,24.1795777 C1277.20275,21.7392065 1279.42773,20 1281.99958,20 C1284.57142,20 1286.79641,21.7392065 1287.34656,24.1795777 C1287.89671,26.6199488 1286.62363,29.1032332 1284.28716,30.1472877 C1287.67583,31.1293378 1289.9987,34.1559981 1290,37.5910046 C1290,37.730063 1289.98653,37.8609416 1289.97895,38 L1288.6255,37.9951359 Z M1286.07976,25.3211416 C1286.07976,23.132474 1284.25319,21.3582083 1282,21.3582083 C1279.74681,21.3582083 1277.92024,23.132474 1277.92024,25.3211416 C1277.92024,27.5098092 1279.74681,29.2840748 1282,29.2840748 C1284.25319,29.2840748 1286.07976,27.5098092 1286.07976,25.3211416 Z" id="_1-user_-_single"></path>
        </g>
    </g>
</svg>