<?xml version="1.0" encoding="UTF-8"?>
<svg width="30px" height="31px" viewBox="0 0 30 31" version="1.1" xmlns="http://www.w3.org/2000/svg" xmlns:xlink="http://www.w3.org/1999/xlink">
    <!-- Generator: Sketch 48 (47235) - http://www.bohemiancoding.com/sketch -->
    <title>footer_social_pinterest</title>
    <desc>Created with Sketch.</desc>
    <defs></defs>
    <g id="Artboard-3" stroke="none" stroke-width="1" fill="none" fill-rule="evenodd" transform="translate(-1108.000000, -4934.000000)" opacity="0.8">
        <g id="底部" transform="translate(0.000000, 4704.000000)" fill="#888888" fill-rule="nonzero">
            <g id="Group-8" transform="translate(37.402597, 25.246753)">
                <g id="keep-up" transform="translate(1002.389610, 46.753247)">
                    <g id="social-media" transform="translate(0.935065, 158.961039)">
                        <g id="footer_social_pinterest" transform="translate(67.324675, 0.000000)">
                            <path d="M14.8839866,0.00053409342 C7.74600963,-0.0547329678 1.59021399,5.0092121 0.260128897,12.0305651 C-1.0699562,19.0519181 2.80642156,26.0207351 9.46894613,28.5858563 C9.28813344,27.1761292 9.32132725,25.7471309 9.56740141,24.347343 L11.3395965,16.9545872 C11.0586369,16.2671663 10.9244876,15.5284847 10.9457754,14.7860456 C10.9457754,12.716074 12.1272387,11.2375228 13.604068,11.2375228 C14.1362755,11.2345617 14.6445472,11.4587006 15.0016178,11.8538178 C15.3586884,12.2489349 15.5307493,12.7776193 15.4747183,13.3074944 C15.4747183,14.5889054 14.6870761,16.4617369 14.293255,18.2359982 C14.1404918,18.8902836 14.2993019,19.5785068 14.7232431,20.099405 C15.1471844,20.6203031 15.788362,20.9150278 16.4592712,20.8973903 C19.1175638,20.8973903 21.0866694,18.1374282 21.0866694,14.096055 C21.1463387,12.4488964 20.5050824,10.8537505 19.3223345,9.70721494 C18.1395866,8.56067935 16.5264469,7.97045223 14.8839866,8.08328036 C13.1361356,8.0024291 11.4314399,8.64159201 10.1666182,9.85202241 C8.9017965,11.0624528 8.18716282,12.7385805 8.18902746,14.4903353 C8.18872268,15.6937365 8.5677198,16.866548 9.27203556,17.8417179 C9.35997135,17.9528492 9.39584509,18.0965115 9.37049085,18.2359982 L8.97666972,19.9116895 C8.87821443,20.2073998 8.77975915,20.2073998 8.48439331,20.1088297 C6.61374295,19.221699 5.53073484,16.5603069 5.53073484,14.3917653 C5.53073484,9.75897166 8.87821443,5.4218883 15.2778078,5.4218883 C21.6774011,5.4218883 24.3356937,9.06898113 24.3356937,13.997485 C24.3356937,18.9259888 21.0866694,23.1645021 16.6561817,23.1645021 C15.3296059,23.2063562 14.0712034,22.5764213 13.3087021,21.4888108 L12.4226046,25.0373335 C11.9686578,26.3947239 11.3398031,27.687036 10.5519542,28.8815665 C16.1142578,30.6444682 22.1918586,28.9636128 26.0615557,24.5921443 C29.9312528,20.2206757 30.8676141,13.9780902 28.4510827,8.66151396 C26.0345513,3.3449377 20.7181417,-0.0489585746 14.8839866,0.00053409342" id="Shape"></path>
                        </g>
                    </g>
                </g>
            </g>
        </g>
    </g>
</svg>