<?xml version="1.0" encoding="UTF-8"?>
<svg width="31px" height="23px" viewBox="0 0 31 23" version="1.1" xmlns="http://www.w3.org/2000/svg" xmlns:xlink="http://www.w3.org/1999/xlink">
    <!-- Generator: Sketch 48 (47235) - http://www.bohemiancoding.com/sketch -->
    <title>footer_social_youtube</title>
    <desc>Created with Sketch.</desc>
    <defs></defs>
    <g id="Artboard-3" stroke="none" stroke-width="1" fill="none" fill-rule="evenodd" transform="translate(-1040.000000, -4938.000000)" opacity="0.8">
        <g id="底部" transform="translate(0.000000, 4704.000000)" fill="#888888" fill-rule="nonzero">
            <g id="Group-8" transform="translate(37.402597, 25.246753)">
                <g id="keep-up" transform="translate(1002.389610, 46.753247)">
                    <g id="social-media" transform="translate(0.935065, 158.961039)">
                        <g id="footer_social_youtube" transform="translate(0.000000, 3.740260)">
                            <path d="M24.1796683,0.222414041 C19.7385048,-0.0741380137 9.86925238,-0.0741380137 5.42808881,0.222414041 C0.986925238,0.518966096 0,3.48448664 0,11.0959894 C0,18.7074921 0.592155143,21.6730127 5.42808881,21.9695647 C10.2640225,22.2661168 19.7385048,22.2661168 24.1796683,21.9695647 C28.6208319,21.6730127 29.6077571,18.7074921 29.6077571,11.0959894 C29.6077571,3.48448664 29.015602,0.518966096 24.1796683,0.222414041 Z M11.1522552,16.0385236 L11.1522552,6.15345513 L21.0215076,11.0959894 L11.1522552,16.0385236 Z" id="Shape"></path>
                        </g>
                    </g>
                </g>
            </g>
        </g>
    </g>
</svg>