<?xml version="1.0" encoding="UTF-8"?>
<svg width="31px" height="25px" viewBox="0 0 31 25" version="1.1" xmlns="http://www.w3.org/2000/svg" xmlns:xlink="http://www.w3.org/1999/xlink">
    <!-- Generator: Sketch 48 (47235) - http://www.bohemiancoding.com/sketch -->
    <title>footer_social_twitter</title>
    <desc>Created with Sketch.</desc>
    <defs></defs>
    <g id="Artboard-3" stroke="none" stroke-width="1" fill="none" fill-rule="evenodd" transform="translate(-1242.000000, -4937.000000)" opacity="0.8">
        <g id="底部" transform="translate(0.000000, 4704.000000)" fill="#888888" fill-rule="nonzero">
            <g id="Group-8" transform="translate(37.402597, 25.246753)">
                <g id="keep-up" transform="translate(1002.389610, 46.753247)">
                    <g id="social-media" transform="translate(0.935065, 158.961039)">
                        <g id="footer_social_twitter" transform="translate(201.974026, 2.805195)">
                            <path d="M29.6077571,2.72222503 C28.5116646,3.21995917 27.3475068,3.55208365 26.1535188,3.70769032 C27.4171502,2.94802392 28.363446,1.75815493 28.8182169,0.35710834 C27.6290366,1.06543377 26.3272533,1.56537897 24.9692085,1.83530627 C23.0683264,-0.10303592 20.1150732,-0.557675117 17.7177893,0.718984967 C15.3205053,1.99564505 14.0533818,4.69782213 14.6064935,7.35391189 C9.70697223,7.0933768 5.14966338,4.7643463 2.072543,0.948387513 C0.427408017,3.74012101 1.25009912,7.32866579 3.94770095,9.12774941 C2.97633824,9.09157301 2.02819258,8.82107499 1.18431029,8.33937718 C1.16663691,11.2340371 3.18567326,13.7438131 6.02024395,14.3507154 C5.1187111,14.5936783 4.17344729,14.6273878 3.25685328,14.449262 C4.05947301,16.9398483 6.36114278,18.6437344 8.98101966,18.6867627 C6.42955274,20.6578452 3.20185745,21.5432629 0,21.1504259 C2.76340124,22.939444 5.98372411,23.8972701 9.27709723,23.9097288 C20.5280449,23.9097288 26.943059,14.3507154 26.5482889,5.87571396 C27.7490056,5.0159739 28.7852855,3.947848 29.6077571,2.72222503" id="Shape"></path>
                        </g>
                    </g>
                </g>
            </g>
        </g>
    </g>
</svg>