<?xml version="1.0" encoding="UTF-8"?>
<svg width="30px" height="31px" viewBox="0 0 30 31" version="1.1" xmlns="http://www.w3.org/2000/svg" xmlns:xlink="http://www.w3.org/1999/xlink">
    <!-- Generator: Sketch 48 (47235) - http://www.bohemiancoding.com/sketch -->
    <title>footer_social_instagram</title>
    <desc>Created with Sketch.</desc>
    <defs></defs>
    <g id="Artboard-3" stroke="none" stroke-width="1" fill="none" fill-rule="evenodd" transform="translate(-1175.000000, -4934.000000)" opacity="0.8">
        <g id="底部" transform="translate(0.000000, 4704.000000)" fill="#888888" fill-rule="nonzero">
            <g id="Group-8" transform="translate(37.402597, 25.246753)">
                <g id="keep-up" transform="translate(1002.389610, 46.753247)">
                    <g id="social-media" transform="translate(0.935065, 158.961039)">
                        <g id="footer_social_instagram" transform="translate(134.649351, 0.000000)">
                            <path d="M14.7792054,7.20455424 C10.5822145,7.20455424 7.1798811,10.6068876 7.1798811,14.8038786 C7.1798811,19.0008695 10.5822145,22.4032029 14.7792054,22.4032029 C18.9761964,22.4032029 22.3785298,19.0008695 22.3785298,14.8038786 C22.3785298,10.6068876 18.9761964,7.20455424 14.7792054,7.20455424 Z M14.7792054,19.7385048 C12.0538866,19.7385048 9.84457925,17.5291974 9.84457925,14.8038786 C9.84457925,12.0785598 12.0538866,9.86925238 14.7792054,9.86925238 C17.5045242,9.86925238 19.7138316,12.0785598 19.7138316,14.8038786 C19.7138316,17.5291974 17.5045242,19.7385048 14.7792054,19.7385048 Z M20.7994494,2.76339067 C24.6484578,2.96077571 26.6223083,4.93462619 26.7210008,8.78363462 C26.8196933,10.2640225 26.8196933,19.1463496 26.7210008,20.72543 C26.6223083,24.5744384 24.7471503,26.4495964 20.7994494,26.6469814 L8.75896148,26.6469814 C4.90995306,26.4495964 3.03479511,24.5744384 2.83741006,20.72543 C2.73871753,19.2450421 2.73871753,10.362715 2.83741006,8.88232714 C2.93610258,4.93462619 4.81126053,2.96077571 8.75896148,2.76339067 L20.7994494,2.76339067 Z M20.8981419,0 L8.66026896,0 C3.33087268,0.296077571 0.27140444,3.35554581 0.0740193928,8.68494209 C-0.0246731309,10.2640225 -0.0246731309,19.3437347 0.0740193928,20.922815 C0.27140444,26.2522113 3.33087268,29.3116796 8.66026896,29.5090646 L20.8981419,29.5090646 C26.2275382,29.212987 29.2870064,26.2522113 29.4843915,20.922815 C29.583084,19.3437347 29.583084,10.2640225 29.4843915,8.68494209 C29.2870064,3.35554581 26.2275382,0.197385048 20.8981419,0 Z M22.6746073,5.13201124 C21.6934926,5.13201124 20.8981419,5.9273619 20.8981419,6.90847666 C20.8981419,7.88959143 21.6934926,8.68494209 22.6746073,8.68494209 C23.6557221,8.68494209 24.4510728,7.88959143 24.4510728,6.90847666 C24.4510728,6.43732874 24.26391,5.98547781 23.9307581,5.65232591 C23.5976062,5.31917402 23.1457553,5.13201124 22.6746073,5.13201124 Z" id="Shape"></path>
                        </g>
                    </g>
                </g>
            </g>
        </g>
    </g>
</svg>